<?xml version="1.0" standalone="no"?>
<!DOCTYPE svg PUBLIC "-//W3C//DTD SVG 20010904//EN"
 "http://www.w3.org/TR/2001/REC-SVG-20010904/DTD/svg10.dtd">
<svg version="1.0" xmlns="http://www.w3.org/2000/svg"
 width="512.000000pt" height="512.000000pt" viewBox="0 0 512.000000 512.000000"
 preserveAspectRatio="xMidYMid meet">
<metadata>
Created by potrace 1.11, written by Peter Selinger 2001-2013
</metadata>
<g transform="translate(0.000000,512.000000) scale(0.100000,-0.100000)"
fill="#000000" stroke="none">
<path d="M2325 4214 c-225 -34 -366 -76 -544 -161 -361 -172 -651 -455 -830
-809 -135 -268 -194 -532 -186 -839 2 -88 6 -173 9 -190 3 -16 8 -43 11 -60 3
-16 7 -41 10 -55 3 -14 7 -36 10 -50 9 -51 54 -188 86 -265 94 -229 217 -413
389 -585 111 -111 139 -136 212 -186 29 -20 60 -42 68 -49 8 -7 34 -22 57 -35
36 -20 43 -21 55 -9 7 8 14 20 15 26 2 7 20 38 40 70 21 32 38 63 38 68 0 6
10 9 22 9 12 -1 21 4 20 10 -1 6 3 10 8 9 6 -1 12 7 12 18 2 18 -1 17 -19 -6
-29 -38 -32 -25 -5 24 13 22 26 38 30 35 3 -3 4 2 2 13 -2 10 -4 20 -4 23 -1
3 -21 16 -46 29 -28 15 -44 29 -41 37 3 8 0 11 -10 7 -18 -7 -46 16 -37 31 3
6 3 8 -2 4 -5 -5 -24 4 -44 19 -55 40 -180 166 -181 181 0 7 -4 10 -10 7 -5
-3 -10 1 -10 9 0 9 -4 16 -9 16 -4 0 -27 26 -49 58 -29 42 -38 62 -30 70 7 7
5 10 -7 9 -10 -1 -20 4 -23 12 -3 9 0 11 9 6 8 -5 11 -4 6 1 -5 5 -14 9 -20 9
-7 0 -13 9 -15 19 -2 11 -10 26 -18 34 -8 7 -12 18 -9 23 4 5 2 9 -2 9 -5 0
-14 9 -21 21 -10 15 -10 24 -2 34 8 10 8 15 -1 21 -8 4 -9 3 -5 -4 4 -7 3 -12
-2 -12 -9 0 -39 69 -47 108 -2 11 -8 29 -13 39 -5 10 -8 28 -7 40 1 12 -2 20
-7 17 -4 -3 -9 4 -9 15 -2 23 -3 29 -12 51 -11 29 -29 161 -23 175 3 8 2 15
-2 15 -4 0 -7 24 -8 54 -1 48 1 54 17 51 10 -2 21 0 24 4 2 5 -5 8 -18 7 -19
-1 -22 4 -22 34 0 27 4 35 17 34 10 -1 15 3 12 8 -3 5 -12 7 -20 4 -17 -7 -18
6 -1 23 6 8 7 11 2 8 -7 -3 -9 9 -7 34 3 25 8 37 16 32 8 -4 8 -3 0 6 -8 9 -9
25 -2 54 5 23 12 51 14 62 2 11 6 30 9 43 3 12 7 32 10 43 11 53 28 95 43 107
10 7 11 12 4 12 -9 0 -9 5 -3 18 5 9 22 45 38 80 19 42 32 61 42 57 11 -4 11
-2 2 9 -7 8 -8 16 -4 18 4 1 18 23 31 48 24 47 50 85 92 130 14 15 30 36 36
46 6 11 16 19 22 19 6 0 14 4 19 9 5 5 3 6 -4 2 -20 -11 -15 1 11 29 14 15 29
24 34 21 6 -3 9 2 8 12 0 10 6 16 16 16 10 -1 15 3 12 8 -7 10 36 45 49 40 5
-1 6 2 3 7 -8 12 21 34 34 26 6 -4 9 -2 8 3 -4 12 52 62 70 62 6 0 12 4 12 8
0 4 15 16 33 27 17 10 34 21 37 25 12 16 101 51 111 44 8 -5 9 -3 4 6 -6 10
-4 12 9 7 10 -4 15 -3 11 3 -6 10 56 40 88 43 9 1 17 5 17 10 0 4 4 6 8 3 4
-2 14 -1 22 4 9 5 19 5 27 -2 11 -8 12 -7 7 7 -5 12 -4 16 4 11 6 -3 13 -2 16
3 4 5 14 8 24 7 9 -2 19 0 22 5 3 4 21 10 40 12 19 3 35 6 35 7 0 3 42 10 87
14 26 2 51 7 56 10 6 3 13 0 15 -6 4 -10 6 -10 6 0 1 16 151 17 151 1 0 -6 6
-4 14 3 17 17 89 12 79 -6 -4 -6 1 -5 10 3 9 7 17 10 17 5 0 -5 19 -9 43 -10
43 -1 91 -7 137 -19 14 -4 32 -8 40 -9 8 -1 22 -5 30 -8 8 -3 51 -17 95 -32
43 -15 82 -30 85 -34 3 -4 12 -8 20 -10 16 -3 121 -53 130 -62 3 -3 17 -11 32
-19 15 -8 36 -22 47 -32 10 -10 21 -15 25 -12 3 3 8 -2 12 -11 3 -9 11 -16 17
-16 33 0 237 -202 320 -317 180 -253 268 -536 262 -847 -1 -83 -5 -162 -9
-176 -3 -13 -8 -41 -11 -61 -3 -20 -10 -50 -15 -68 -5 -17 -9 -35 -9 -39 -1
-4 -13 -43 -27 -87 -35 -107 -110 -257 -180 -357 -78 -112 -258 -290 -366
-362 -49 -32 -88 -62 -88 -67 0 -4 10 -25 21 -46 33 -60 142 -247 146 -253 3
-2 18 3 34 12 16 10 37 15 47 12 14 -5 15 -4 2 5 -8 6 -12 11 -7 12 4 1 10 2
15 3 4 0 18 11 31 23 13 12 27 20 31 18 5 -3 11 2 14 11 4 9 13 14 22 10 8 -3
12 -2 9 3 -7 12 84 83 96 75 5 -3 6 2 3 10 -4 11 0 16 11 16 9 0 13 5 10 10
-6 10 9 15 30 10 5 -1 7 2 3 6 -11 10 12 35 25 27 5 -3 7 -2 4 4 -4 5 5 20 18
31 14 12 25 27 25 34 0 6 3 9 6 6 6 -7 33 18 51 48 6 10 16 18 23 16 6 -1 9 2
5 7 -3 6 2 18 12 28 10 10 30 38 46 61 15 23 32 42 37 42 6 0 9 6 8 13 -2 6 3
11 11 9 8 -2 11 3 8 11 -7 19 21 59 35 51 6 -4 8 1 3 15 -4 15 -2 21 9 21 9 0
13 6 10 14 -3 8 0 17 5 21 6 3 9 11 6 16 -4 5 -2 9 3 9 4 0 15 16 22 35 9 24
19 34 28 30 12 -4 13 -3 2 10 -9 11 -9 15 -1 15 7 0 10 4 7 9 -3 5 3 28 13 52
17 40 22 54 32 84 1 6 10 17 19 25 9 8 10 11 3 6 -10 -6 -10 1 1 32 8 23 20
68 27 101 6 34 15 59 18 56 4 -2 5 10 3 27 -3 17 -1 28 4 25 5 -3 9 11 10 31
1 97 5 133 12 129 4 -3 7 6 7 19 0 13 -3 24 -6 24 -4 0 -3 17 0 38 4 20 6 61
4 90 -1 29 2 50 7 47 5 -3 12 0 16 6 4 8 3 9 -4 5 -16 -10 -34 28 -20 42 9 9
8 12 -2 12 -13 0 -13 2 0 10 12 8 12 10 1 10 -11 0 -11 3 0 17 8 9 9 14 3 10
-12 -7 -29 97 -19 114 4 5 2 9 -2 9 -5 0 -10 14 -11 31 -1 17 -7 39 -12 49 -6
10 -5 21 1 28 5 7 6 10 2 7 -8 -6 -65 168 -67 202 -1 11 -5 19 -10 15 -5 -3
-7 2 -3 11 4 10 2 17 -4 17 -6 0 -8 7 -5 16 3 8 2 12 -4 9 -9 -6 -14 8 -11 28
0 4 -4 7 -10 7 -5 0 -8 4 -5 9 4 5 1 11 -4 13 -6 2 -12 10 -14 18 -1 8 -8 25
-14 38 -7 12 -9 22 -5 22 4 0 -1 6 -12 13 -11 9 -15 19 -10 27 5 9 4 11 -3 6
-7 -4 -12 -2 -12 4 0 6 -11 27 -25 47 -13 20 -21 41 -18 47 3 6 2 8 -2 3 -11
-9 -46 43 -38 57 3 6 3 8 -2 4 -4 -4 -24 14 -44 40 -45 59 -49 64 -89 107 -19
20 -30 40 -26 47 4 6 3 8 -4 5 -11 -8 -112 85 -112 103 0 6 -4 9 -9 5 -5 -3
-17 5 -25 17 -9 12 -16 18 -16 13 0 -6 -3 -6 -8 0 -11 16 -111 89 -182 134
-36 22 -69 44 -75 48 -5 5 -45 24 -87 44 -43 20 -74 40 -70 44 4 5 2 5 -4 2
-11 -6 -54 7 -109 33 -23 11 -128 43 -195 58 -84 20 -104 24 -230 41 -91 13
-339 10 -435 -5z"/>
<path d="M2470 3856 c0 -2 8 -10 18 -17 15 -13 16 -12 3 4 -13 16 -21 21 -21
13z"/>
<path d="M2333 3825 c0 -8 4 -12 9 -9 5 3 6 10 3 15 -9 13 -12 11 -12 -6z"/>
<path d="M2365 3820 c-3 -6 1 -7 9 -4 18 7 21 14 7 14 -6 0 -13 -4 -16 -10z"/>
<path d="M1993 3715 c0 -8 4 -12 9 -9 5 3 6 10 3 15 -9 13 -12 11 -12 -6z"/>
<path d="M1936 3658 c3 -5 10 -6 15 -3 13 9 11 12 -6 12 -8 0 -12 -4 -9 -9z"/>
<path d="M1710 3555 c5 -7 6 -16 2 -21 -4 -5 -3 -5 2 -1 15 12 15 34 0 34 -9
0 -11 -4 -4 -12z"/>
<path d="M1650 3515 c5 -7 6 -16 2 -21 -4 -5 -3 -5 2 -1 15 12 15 34 0 34 -9
0 -11 -4 -4 -12z"/>
<path d="M2425 3508 c-152 -17 -331 -84 -468 -175 -88 -57 -238 -206 -292
-288 -86 -132 -146 -280 -170 -423 -16 -99 -14 -299 5 -377 6 -27 14 -61 16
-74 10 -48 65 -178 108 -254 48 -84 140 -202 181 -233 14 -10 25 -25 25 -32 0
-7 4 -11 8 -8 4 2 23 -9 42 -26 31 -27 94 -72 127 -91 7 -5 24 13 44 47 18 30
36 53 40 50 4 -2 6 4 5 14 0 9 4 16 11 15 7 -2 10 3 7 11 -3 7 2 21 11 30 9 9
13 16 9 16 -3 0 -2 6 3 13 22 28 75 130 65 123 -13 -8 -100 48 -109 70 -3 8
-9 14 -14 14 -17 0 -99 95 -94 108 3 8 0 10 -7 6 -8 -5 -9 -2 -5 10 4 10 3 15
-3 11 -12 -7 -44 41 -35 55 4 6 1 9 -5 8 -12 -3 -51 87 -42 96 3 4 1 6 -5 6
-18 0 -37 121 -36 225 2 84 7 140 13 140 2 0 5 16 14 59 3 16 13 38 23 49 10
11 13 17 6 14 -8 -5 -8 -1 0 18 8 16 17 23 27 19 11 -4 12 -2 3 7 -9 9 -6 20
10 49 34 58 79 110 90 103 6 -3 8 -2 4 3 -3 5 1 18 9 29 8 10 14 16 14 12 0
-4 13 7 29 24 17 17 35 28 41 24 6 -3 9 -1 8 7 -2 7 5 12 14 12 10 -1 16 3 15
9 -2 11 124 77 136 70 4 -2 7 1 7 7 0 7 6 10 14 7 8 -3 16 -2 18 3 2 4 19 11
38 15 19 3 51 9 70 12 46 9 186 9 230 0 19 -4 50 -10 67 -13 19 -4 30 -11 26
-17 -3 -6 -1 -7 6 -3 16 10 53 -3 45 -16 -4 -7 -2 -8 5 -4 16 11 83 -22 75
-36 -4 -6 -3 -8 4 -5 14 9 43 -3 36 -14 -3 -5 1 -7 8 -4 7 3 27 -8 44 -23 17
-15 47 -41 66 -58 53 -47 114 -133 152 -215 96 -207 83 -452 -34 -649 -43 -74
-145 -181 -213 -227 -53 -35 -60 -12 57 -210 l78 -132 24 15 c13 9 24 13 24 9
0 -5 8 2 19 13 10 12 21 19 25 15 3 -3 6 -1 6 6 0 8 6 11 16 7 8 -3 12 -2 9 4
-3 6 -1 10 6 10 7 0 9 3 6 7 -4 3 9 17 28 30 19 13 35 29 35 35 0 6 10 3 22
-8 16 -14 19 -14 10 -2 -11 14 -9 21 18 50 18 18 28 26 24 18 -4 -9 -3 -12 2
-7 5 5 9 16 9 25 0 9 11 22 25 29 14 7 19 13 12 13 -10 0 -9 4 2 16 9 8 21 24
27 35 9 17 13 18 27 7 15 -12 16 -11 4 4 -12 15 -11 22 7 47 12 16 21 32 21
36 0 4 9 20 21 36 11 16 17 29 13 29 -4 0 1 7 12 16 10 8 12 12 4 8 -12 -6
-13 -5 -4 7 6 8 17 35 25 62 7 26 16 47 20 47 4 0 6 6 6 13 -3 34 28 165 37
160 8 -5 8 -3 0 8 -9 13 -10 25 -4 47 6 21 4 172 -3 172 -4 0 -3 10 4 21 6 12
7 19 1 15 -5 -3 -12 15 -16 42 -3 26 -9 61 -12 77 -4 17 -7 36 -7 43 0 6 -4
12 -9 12 -5 0 -7 4 -3 9 3 5 1 12 -4 15 -5 4 -12 24 -16 46 -4 22 -10 40 -14
40 -5 0 -15 18 -23 39 -15 36 -14 39 1 35 10 -4 9 -1 -4 7 -29 18 -45 42 -39
59 3 8 2 11 -2 7 -4 -4 -16 5 -25 20 -14 21 -15 29 -6 36 8 6 6 7 -6 3 -11 -4
-20 1 -24 12 -4 9 -13 22 -21 28 -8 6 -12 16 -8 23 4 6 4 10 -1 9 -5 -2 -38
25 -73 59 -36 34 -89 80 -117 101 -29 21 -49 43 -45 47 4 5 2 5 -5 2 -6 -4
-19 0 -27 9 -9 8 -16 13 -16 10 0 -4 -17 4 -37 17 -162 99 -432 151 -658 125z"/>
<path d="M1435 3301 c-3 -5 -2 -12 3 -15 5 -3 9 1 9 9 0 17 -3 19 -12 6z"/>
<path d="M1461 3276 c-9 -11 -9 -16 1 -22 7 -4 10 -4 6 1 -4 4 -3 14 3 22 6 7
9 13 6 13 -2 0 -10 -6 -16 -14z"/>
<path d="M1389 3217 c6 -8 7 -18 3 -22 -4 -5 -1 -5 6 -1 10 6 10 11 1 22 -6 8
-14 14 -16 14 -3 0 0 -6 6 -13z"/>
<path d="M1350 3200 c0 -5 5 -10 11 -10 5 0 7 5 4 10 -3 6 -8 10 -11 10 -2 0
-4 -4 -4 -10z"/>
<path d="M2520 3140 c-9 -6 -10 -10 -3 -10 6 0 15 5 18 10 8 12 4 12 -15 0z"/>
<path d="M1339 3113 c-13 -16 -12 -17 4 -4 16 13 21 21 13 21 -2 0 -10 -8 -17
-17z"/>
<path d="M2595 3120 c-3 -5 -1 -10 4 -10 6 0 11 5 11 10 0 6 -2 10 -4 10 -3 0
-8 -4 -11 -10z"/>
<path d="M1336 3075 c-9 -26 -7 -32 5 -12 6 10 9 21 6 23 -2 3 -7 -2 -11 -11z"/>
<path d="M2330 3079 c0 -5 5 -7 10 -4 6 3 10 8 10 11 0 2 -4 4 -10 4 -5 0 -10
-5 -10 -11z"/>
<path d="M2239 3068 c-5 -18 -6 -38 -1 -34 7 8 12 36 6 36 -2 0 -4 -1 -5 -2z"/>
<path d="M1274 3049 c-3 -6 -2 -15 3 -20 5 -5 9 -1 9 11 0 23 -2 24 -12 9z"/>
<path d="M2185 3020 c-3 -6 1 -7 9 -4 18 7 21 14 7 14 -6 0 -13 -4 -16 -10z"/>
<path d="M2255 3019 c-3 -4 2 -6 10 -5 21 3 28 13 10 13 -9 0 -18 -4 -20 -8z"/>
<path d="M2153 2995 c0 -8 4 -12 9 -9 5 3 6 10 3 15 -9 13 -12 11 -12 -6z"/>
<path d="M2116 2982 c-3 -5 1 -9 9 -9 8 0 12 4 9 9 -3 4 -7 8 -9 8 -2 0 -6 -4
-9 -8z"/>
<path d="M2086 2962 c-3 -5 1 -9 9 -9 8 0 12 4 9 9 -3 4 -7 8 -9 8 -2 0 -6 -4
-9 -8z"/>
<path d="M1216 2922 c-3 -5 1 -9 9 -9 8 0 12 4 9 9 -3 4 -7 8 -9 8 -2 0 -6 -4
-9 -8z"/>
<path d="M2070 2919 c0 -5 5 -7 10 -4 6 3 10 8 10 11 0 2 -4 4 -10 4 -5 0 -10
-5 -10 -11z"/>
<path d="M1210 2896 c0 -2 8 -10 18 -17 15 -13 16 -12 3 4 -13 16 -21 21 -21
13z"/>
<path d="M1195 2860 c-3 -5 -1 -10 4 -10 6 0 11 5 11 10 0 6 -2 10 -4 10 -3 0
-8 -4 -11 -10z"/>
<path d="M1256 2858 c3 -5 10 -6 15 -3 13 9 11 12 -6 12 -8 0 -12 -4 -9 -9z"/>
<path d="M1993 2835 c0 -8 4 -12 9 -9 4 3 8 9 8 15 0 5 -4 9 -8 9 -5 0 -9 -7
-9 -15z"/>
<path d="M2030 2839 c0 -5 5 -7 10 -4 6 3 10 8 10 11 0 2 -4 4 -10 4 -5 0 -10
-5 -10 -11z"/>
<path d="M1190 2825 c0 -7 30 -13 34 -7 3 4 -4 9 -15 9 -10 1 -19 0 -19 -2z"/>
<path d="M1193 2803 c4 -3 1 -13 -6 -22 -11 -14 -10 -14 5 -2 16 12 16 31 1
31 -4 0 -3 -3 0 -7z"/>
<path d="M2493 2795 c-122 -27 -209 -94 -260 -202 -64 -138 -24 -318 92 -415
39 -33 101 -68 120 -68 8 0 15 -4 15 -8 0 -13 143 -14 196 -1 27 7 68 25 91
41 23 15 47 28 53 28 6 0 9 3 7 8 -3 4 1 13 9 20 8 7 14 9 14 5 1 -4 10 9 21
30 11 20 24 38 29 38 6 1 14 2 19 3 5 0 13 4 17 8 3 4 -3 6 -15 3 -23 -4 -29
10 -7 18 7 3 14 16 14 29 2 41 9 63 20 63 6 0 14 4 19 8 4 5 1 7 -7 5 -12 -2
-15 7 -15 45 0 26 -4 47 -9 47 -5 0 -2 8 5 17 10 11 10 14 2 9 -8 -4 -13 -2
-13 8 0 8 -5 27 -11 43 -6 15 -11 30 -12 33 -2 7 -24 34 -64 80 -40 45 -132
96 -193 105 -25 3 -52 8 -60 10 -8 2 -43 -3 -77 -10z"/>
<path d="M1953 2775 c0 -8 4 -12 9 -9 5 3 6 10 3 15 -9 13 -12 11 -12 -6z"/>
<path d="M1987 2779 c7 -7 15 -10 18 -7 3 3 -2 9 -12 12 -14 6 -15 5 -6 -5z"/>
<path d="M4375 2761 c-3 -5 -2 -12 3 -15 5 -3 9 1 9 9 0 17 -3 19 -12 6z"/>
<path d="M3630 2739 c0 -5 5 -7 10 -4 6 3 10 8 10 11 0 2 -4 4 -10 4 -5 0 -10
-5 -10 -11z"/>
<path d="M1929 2723 c-13 -16 -12 -17 4 -4 16 13 21 21 13 21 -2 0 -10 -8 -17
-17z"/>
<path d="M1987 2719 c7 -7 15 -10 18 -7 3 3 -2 9 -12 12 -14 6 -15 5 -6 -5z"/>
<path d="M1949 2683 c-13 -16 -12 -17 4 -4 16 13 21 21 13 21 -2 0 -10 -8 -17
-17z"/>
<path d="M1910 2681 c0 -6 4 -12 8 -15 5 -3 9 1 9 9 0 8 -4 15 -9 15 -4 0 -8
-4 -8 -9z"/>
<path d="M1155 2661 c-3 -5 -2 -12 3 -15 5 -3 9 1 9 9 0 17 -3 19 -12 6z"/>
<path d="M1894 2640 c0 -13 4 -16 10 -10 7 7 7 13 0 20 -6 6 -10 3 -10 -10z"/>
<path d="M3667 2639 c7 -7 15 -10 18 -7 3 3 -2 9 -12 12 -14 6 -15 5 -6 -5z"/>
<path d="M1879 2593 c-13 -16 -12 -17 4 -4 16 13 21 21 13 21 -2 0 -10 -8 -17
-17z"/>
<path d="M4416 2542 c-3 -5 1 -9 9 -9 8 0 12 4 9 9 -3 4 -7 8 -9 8 -2 0 -6 -4
-9 -8z"/>
<path d="M1894 2476 c1 -8 5 -18 8 -22 4 -3 5 1 4 10 -1 8 -5 18 -8 22 -4 3
-5 -1 -4 -10z"/>
<path d="M2936 2447 c3 -10 9 -15 12 -12 3 3 0 11 -7 18 -10 9 -11 8 -5 -6z"/>
<path d="M4415 2441 c-3 -5 -2 -12 3 -15 5 -3 9 1 9 9 0 17 -3 19 -12 6z"/>
<path d="M1890 2421 c0 -6 4 -13 10 -16 6 -3 7 1 4 9 -7 18 -14 21 -14 7z"/>
<path d="M1186 2358 c3 -5 10 -6 15 -3 13 9 11 12 -6 12 -8 0 -12 -4 -9 -9z"/>
<path d="M1865 2360 c-3 -6 1 -7 9 -4 18 7 21 14 7 14 -6 0 -13 -4 -16 -10z"/>
<path d="M2926 2258 c3 -5 10 -6 15 -3 13 9 11 12 -6 12 -8 0 -12 -4 -9 -9z"/>
<path d="M1153 2235 c0 -8 4 -12 9 -9 5 3 6 10 3 15 -9 13 -12 11 -12 -6z"/>
<path d="M3633 2215 c0 -8 4 -12 9 -9 5 3 6 10 3 15 -9 13 -12 11 -12 -6z"/>
<path d="M2873 2175 c0 -8 4 -12 9 -9 5 3 6 10 3 15 -9 13 -12 11 -12 -6z"/>
<path d="M1186 2158 c3 -5 10 -6 15 -3 13 9 11 12 -6 12 -8 0 -12 -4 -9 -9z"/>
<path d="M3653 2149 c-2 -23 3 -25 10 -4 4 8 3 16 -1 19 -4 3 -9 -4 -9 -15z"/>
<path d="M4385 2120 c-3 -6 1 -7 9 -4 18 7 21 14 7 14 -6 0 -13 -4 -16 -10z"/>
<path d="M2770 2099 c0 -5 5 -7 10 -4 6 3 10 8 10 11 0 2 -4 4 -10 4 -5 0 -10
-5 -10 -11z"/>
<path d="M1230 1939 c0 -5 5 -7 10 -4 6 3 10 8 10 11 0 2 -4 4 -10 4 -5 0 -10
-5 -10 -11z"/>
<path d="M3519 1833 c-13 -16 -12 -17 4 -4 16 13 21 21 13 21 -2 0 -10 -8 -17
-17z"/>
<path d="M4260 1846 c0 -2 8 -10 18 -17 15 -13 16 -12 3 4 -13 16 -21 21 -21
13z"/>
<path d="M4251 1804 c0 -11 3 -14 6 -6 3 7 2 16 -1 19 -3 4 -6 -2 -5 -13z"/>
<path d="M2210 1779 c0 -5 5 -7 10 -4 6 3 10 8 10 11 0 2 -4 4 -10 4 -5 0 -10
-5 -10 -11z"/>
<path d="M3467 1779 c7 -7 15 -10 18 -7 3 3 -2 9 -12 12 -14 6 -15 5 -6 -5z"/>
<path d="M3430 1739 c0 -5 5 -7 10 -4 6 3 10 8 10 11 0 2 -4 4 -10 4 -5 0 -10
-5 -10 -11z"/>
<path d="M4230 1746 c0 -2 7 -7 16 -10 8 -3 12 -2 9 4 -6 10 -25 14 -25 6z"/>
<path d="M3396 1713 c-6 -14 -5 -15 5 -6 7 7 10 15 7 18 -3 3 -9 -2 -12 -12z"/>
<path d="M2136 1679 c4 -8 30 -6 38 2 3 3 -5 5 -19 5 -13 0 -22 -3 -19 -7z"/>
<path d="M4255 1680 c-3 -5 -1 -10 4 -10 6 0 11 5 11 10 0 6 -2 10 -4 10 -3 0
-8 -4 -11 -10z"/>
<path d="M3354 1662 c4 -3 14 -7 22 -8 9 -1 13 0 10 4 -4 3 -14 7 -22 8 -9 1
-13 0 -10 -4z"/>
<path d="M3296 1638 c3 -5 10 -6 15 -3 13 9 11 12 -6 12 -8 0 -12 -4 -9 -9z"/>
<path d="M4236 1638 c3 -5 10 -6 15 -3 13 9 11 12 -6 12 -8 0 -12 -4 -9 -9z"/>
<path d="M3294 1595 c0 -13 3 -22 7 -19 8 4 6 30 -2 38 -3 3 -5 -5 -5 -19z"/>
<path d="M1435 1600 c-3 -5 -1 -10 4 -10 6 0 11 5 11 10 0 6 -2 10 -4 10 -3 0
-8 -4 -11 -10z"/>
<path d="M2076 1601 c-3 -5 2 -15 12 -22 15 -12 16 -12 5 2 -7 9 -10 19 -6 22
3 4 4 7 0 7 -3 0 -8 -4 -11 -9z"/>
<path d="M3253 1595 c0 -8 4 -12 9 -9 5 3 6 10 3 15 -9 13 -12 11 -12 -6z"/>
<path d="M2115 1580 c3 -5 8 -10 11 -10 2 0 4 5 4 10 0 6 -5 10 -11 10 -5 0
-7 -4 -4 -10z"/>
<path d="M3199 1553 c-13 -16 -12 -17 4 -4 9 7 17 15 17 17 0 8 -8 3 -21 -13z"/>
<path d="M3240 1520 c-9 -6 -10 -10 -3 -10 6 0 15 5 18 10 8 12 4 12 -15 0z"/>
<path d="M4105 1479 c-3 -4 2 -6 10 -5 21 3 28 13 10 13 -9 0 -18 -4 -20 -8z"/>
<path d="M4033 1355 c0 -8 4 -12 9 -9 5 3 6 10 3 15 -9 13 -12 11 -12 -6z"/>
<path d="M4006 1298 c3 -5 10 -6 15 -3 13 9 11 12 -6 12 -8 0 -12 -4 -9 -9z"/>
<path d="M3940 1285 c0 -2 6 -8 13 -14 10 -8 14 -7 14 2 0 8 -6 14 -14 14 -7
0 -13 -1 -13 -2z"/>
<path d="M3827 1139 c7 -9 10 -19 6 -22 -3 -4 -1 -7 5 -7 17 0 15 16 -5 31
-16 12 -17 12 -6 -2z"/>
<path d="M1810 1059 c0 -5 5 -7 10 -4 6 3 10 8 10 11 0 2 -4 4 -10 4 -5 0 -10
-5 -10 -11z"/>
<path d="M3719 1053 c-13 -16 -12 -17 4 -4 16 13 21 21 13 21 -2 0 -10 -8 -17
-17z"/>
<path d="M1774 1049 c-3 -6 -2 -15 3 -20 5 -5 9 -1 9 11 0 23 -2 24 -12 9z"/>
<path d="M3679 1028 c-5 -16 -4 -46 2 -42 4 2 7 13 6 24 -1 17 -5 26 -8 18z"/>
<path d="M1710 965 c0 -7 30 -13 34 -7 3 4 -4 9 -15 9 -10 1 -19 0 -19 -2z"/>
<path d="M3610 939 c0 -5 5 -7 10 -4 6 3 10 8 10 11 0 2 -4 4 -10 4 -5 0 -10
-5 -10 -11z"/>
<path d="M3570 879 c0 -5 5 -7 10 -4 6 3 10 8 10 11 0 2 -4 4 -10 4 -5 0 -10
-5 -10 -11z"/>
</g>
</svg>
